<?xml version="1.0" standalone="no"?><!DOCTYPE svg PUBLIC "-//W3C//DTD SVG 1.1//EN" "http://www.w3.org/Graphics/SVG/1.1/DTD/svg11.dtd"><svg class="icon" width="200px" height="200.00px" viewBox="0 0 1024 1024" version="1.1" xmlns="http://www.w3.org/2000/svg"><path d="M702.072 898.282c0 0 8.639-51.883-44.636-115.239 51.856-145.462 59.051-277.927 59.051-277.927s106.575 24.497 106.575 129.603c-0.025 180.016-120.99 263.564-120.99 263.564zM408.312 835.079c0 0-71.377-229.061-71.377-324.084 0-42.755 4.822-80.789 12.325-115.317h325.167c7.555 34.554 12.403 72.614 12.403 115.343 0 93.578-71.17 324.059-71.17 324.059h-207.349zM511.742 448.050c-36.565 0-66.219 29.654-66.219 66.246 0 36.565 29.654 66.246 66.219 66.246 36.591 0 66.246-29.654 66.246-66.246 0.025-36.591-29.654-66.246-66.246-66.246zM497.508 152.202v-90.202h25.786v87.907c29.474 21.454 109.231 89.685 145.307 221.119h-313.564c34.864-127.823 110.779-195.308 142.471-218.824zM321.928 898.282c0 0-120.965-83.548-120.965-263.564 0-105.106 106.575-129.603 106.575-129.603s7.194 132.465 59.026 277.927c-53.301 63.383-44.636 115.239-44.636 115.239zM555.605 911.588l-21.608-21.608-23.028 72.022-27.385-72.022-18.721 37.416-27.385-67.689h148.324l-30.196 51.883z" /></svg>